<?xml version="1.0" encoding="UTF-8" standalone="no"?>
<!-- Created with Inkscape (http://www.inkscape.org/) -->

<svg
   xmlns:dc="http://purl.org/dc/elements/1.1/"
   xmlns:cc="http://creativecommons.org/ns#"
   xmlns:rdf="http://www.w3.org/1999/02/22-rdf-syntax-ns#"
   xmlns:svg="http://www.w3.org/2000/svg"
   xmlns="http://www.w3.org/2000/svg"
   version="1.1"
   width="392.06259"
   height="392.06219"
   id="svg4078">
  <defs
     id="defs4080" />
  <metadata
     id="metadata4083">
    <rdf:RDF>
      <cc:Work
         rdf:about="">
        <dc:format>image/svg+xml</dc:format>
        <dc:type
           rdf:resource="http://purl.org/dc/dcmitype/StillImage" />
        <dc:title></dc:title>
      </cc:Work>
    </rdf:RDF>
  </metadata>
  <g
     transform="translate(-289.68299,-450.6168)"
     id="layer1">
    <path
       d="m 95.053577,183.04537 -8.125,46.2813 0.0313,0.031 c -9.9316,1.6228 -19.5405,4.2238 -28.7188,7.6875 l 0,-0.031 -30.156201,-36.0312 -28.34379957,16.375 16.09379957,44.125 0.0624,0.031 c -7.6841999,6.3076 -14.7270996,13.3754 -21.0311996,21.0626 l -0.0312,-0.094 -44.1250004,-16.0938 -16.375001,28.3438 36.031201,30.1875 c -3.458,9.1707 -6.0358,18.7652 -7.6562,28.6875 l -0.0313,-0.031 -46.2813,8.125 0,32.75 46.2813,8.125 0.0313,-0.031 c 1.6203,9.9223 4.1982,19.5168 7.6562,28.6875 l -36.031201,30.1875 16.375001,28.3437 44.1250004,-16.0937 0.0312,-0.094 c 6.3041,7.687 13.3468997,14.755 21.0311996,21.0624 l -0.0624,0.031 -16.09379957,44.125 28.34379957,16.375 30.156201,-36.0309 0,-0.0312 c 9.1783,3.4637 18.7872,6.0647 28.7188,7.6875 l -0.0313,0.031 8.125,46.2812 32.718703,0 8.125,-46.2812 -0.0312,-0.031 c 9.9296,-1.6184 19.5413,-4.1977 28.7188,-7.6563 l 30.1874,36.0313 28.3438,-16.375 -16.125,-44.125 c 7.6669,-6.2915 14.7063,-13.335 21,-21 l 44.1562,16.0937 16.3438,-28.3437 -36,-30.1875 c 3.4588,-9.1719 6.0668,-18.7638 7.6875,-28.6875 l 46.2813,-8.0937 0,-32.75 -46.2813,-8.125 c -1.621,-9.9131 -4.2322,-19.4937 -7.6875,-28.6563 l 36,-30.1875 -16.3438,-28.3438 -44.1562,16.0938 c -6.2938,-7.6652 -13.3329,-14.7085 -21,-21 l 16.125,-44.125 -28.3438,-16.375 -30.1874,36.0312 c -9.1775,-3.4583 -18.7892,-6.0378 -28.7188,-7.6562 l 0.0312,-0.031 -8.125,-46.2813 -32.718703,0 z m 16.375003,79.6875 c 63.71,0 115.375,51.6337 115.375,115.3438 0,63.71 -51.665,115.3437 -115.375,115.3437 -63.710003,0 -115.3437036,-51.6337 -115.3437036,-115.3437 0,-63.7101 51.6337006,-115.3438 115.3437036,-115.3438 z"
       id="path4050"
       style="fill:#000000;stroke:none" />
  </g>
</svg>
